# xmcd
#
# Track frame offsets: 
#        150
#        21632
#        45357
#        70634
#        92419
#        106316
#
# Disc length: 1864 seconds
#
# Revision: 0
# Processed by: cddbd v1.5.1PL0 Copyright (c) Steve Scherf et al.
# Submitted via: ExactAudioCopy v0.95b3
#
DISCID=41074606
DTITLE=B.B de Vouex (Scotty Wright) - Bluevolution Disc A
DYEAR=1900
DGENRE=Blues
TTITLE0=Sound of silent
TTITLE1=Masquenada
TTITLE2=When I fall in love
TTITLE3=Autumn leaves
TTITLE4=Dream a little dream
TTITLE5=Killing me softly
EXTD=
EXTT0=
EXTT1=
EXTT2=
EXTT3=
EXTT4=
EXTT5=
PLAYORDER=
